<mxfile host="Electron" agent="Mozilla/5.0 (X11; Linux x86_64) AppleWebKit/537.36 (KHTML, like Gecko) draw.io/26.2.2 Chrome/134.0.6998.178 Electron/35.1.2 Safari/537.36" version="26.2.2">
  <diagram name="Page-1" id="yEhQBcXNi6j1XUw0fWUO">
    <mxGraphModel dx="1680" dy="1029" grid="1" gridSize="10" guides="1" tooltips="1" connect="1" arrows="1" fold="1" page="1" pageScale="1" pageWidth="850" pageHeight="1100" math="0" shadow="0">
      <root>
        <mxCell id="0" />
        <mxCell id="1" parent="0" />
        <mxCell id="PhnPV0rfydqtkL6QS3ha-1" value="User" style="shape=umlLifeline;perimeter=lifelinePerimeter;whiteSpace=wrap;container=1;dropTarget=0;collapsible=0;recursiveResize=0;outlineConnect=0;portConstraint=eastwest;newEdgeStyle={&quot;edgeStyle&quot;:&quot;elbowEdgeStyle&quot;,&quot;elbow&quot;:&quot;vertical&quot;,&quot;curved&quot;:0,&quot;rounded&quot;:0};participant=umlActor;verticalAlign=bottom;labelPosition=center;verticalLabelPosition=top;align=center;size=65;" vertex="1" parent="1">
          <mxGeometry x="20" y="20" width="35" height="7317" as="geometry" />
        </mxCell>
        <mxCell id="PhnPV0rfydqtkL6QS3ha-2" value="User Interface" style="shape=umlLifeline;perimeter=lifelinePerimeter;whiteSpace=wrap;container=1;dropTarget=0;collapsible=0;recursiveResize=0;outlineConnect=0;portConstraint=eastwest;newEdgeStyle={&quot;edgeStyle&quot;:&quot;elbowEdgeStyle&quot;,&quot;elbow&quot;:&quot;vertical&quot;,&quot;curved&quot;:0,&quot;rounded&quot;:0};size=65;" vertex="1" parent="1">
          <mxGeometry x="562" y="20" width="150" height="7317" as="geometry" />
        </mxCell>
        <mxCell id="PhnPV0rfydqtkL6QS3ha-3" value="API Gateway" style="shape=umlLifeline;perimeter=lifelinePerimeter;whiteSpace=wrap;container=1;dropTarget=0;collapsible=0;recursiveResize=0;outlineConnect=0;portConstraint=eastwest;newEdgeStyle={&quot;edgeStyle&quot;:&quot;elbowEdgeStyle&quot;,&quot;elbow&quot;:&quot;vertical&quot;,&quot;curved&quot;:0,&quot;rounded&quot;:0};size=65;" vertex="1" parent="1">
          <mxGeometry x="876" y="20" width="150" height="7317" as="geometry" />
        </mxCell>
        <mxCell id="PhnPV0rfydqtkL6QS3ha-4" value="Auth Service" style="shape=umlLifeline;perimeter=lifelinePerimeter;whiteSpace=wrap;container=1;dropTarget=0;collapsible=0;recursiveResize=0;outlineConnect=0;portConstraint=eastwest;newEdgeStyle={&quot;edgeStyle&quot;:&quot;elbowEdgeStyle&quot;,&quot;elbow&quot;:&quot;vertical&quot;,&quot;curved&quot;:0,&quot;rounded&quot;:0};size=65;" vertex="1" parent="1">
          <mxGeometry x="1314" y="20" width="150" height="7317" as="geometry" />
        </mxCell>
        <mxCell id="PhnPV0rfydqtkL6QS3ha-5" value="User Service" style="shape=umlLifeline;perimeter=lifelinePerimeter;whiteSpace=wrap;container=1;dropTarget=0;collapsible=0;recursiveResize=0;outlineConnect=0;portConstraint=eastwest;newEdgeStyle={&quot;edgeStyle&quot;:&quot;elbowEdgeStyle&quot;,&quot;elbow&quot;:&quot;vertical&quot;,&quot;curved&quot;:0,&quot;rounded&quot;:0};size=65;" vertex="1" parent="1">
          <mxGeometry x="1695" y="20" width="150" height="7317" as="geometry" />
        </mxCell>
        <mxCell id="PhnPV0rfydqtkL6QS3ha-6" value="Email Service" style="shape=umlLifeline;perimeter=lifelinePerimeter;whiteSpace=wrap;container=1;dropTarget=0;collapsible=0;recursiveResize=0;outlineConnect=0;portConstraint=eastwest;newEdgeStyle={&quot;edgeStyle&quot;:&quot;elbowEdgeStyle&quot;,&quot;elbow&quot;:&quot;vertical&quot;,&quot;curved&quot;:0,&quot;rounded&quot;:0};size=65;" vertex="1" parent="1">
          <mxGeometry x="1895" y="20" width="150" height="7317" as="geometry" />
        </mxCell>
        <mxCell id="PhnPV0rfydqtkL6QS3ha-7" value="Database" style="shape=umlLifeline;perimeter=lifelinePerimeter;whiteSpace=wrap;container=1;dropTarget=0;collapsible=0;recursiveResize=0;outlineConnect=0;portConstraint=eastwest;newEdgeStyle={&quot;edgeStyle&quot;:&quot;elbowEdgeStyle&quot;,&quot;elbow&quot;:&quot;vertical&quot;,&quot;curved&quot;:0,&quot;rounded&quot;:0};size=65;" vertex="1" parent="1">
          <mxGeometry x="2095" y="20" width="150" height="7317" as="geometry" />
        </mxCell>
        <mxCell id="PhnPV0rfydqtkL6QS3ha-8" value="alt" style="shape=umlFrame;dashed=1;pointerEvents=0;dropTarget=0;strokeColor=#B3B3B3;height=20;width=30;strokeWidth=4;" vertex="1" parent="1">
          <mxGeometry x="60" y="979" width="2121" height="1205" as="geometry" />
        </mxCell>
        <mxCell id="PhnPV0rfydqtkL6QS3ha-9" value="[Password too weak]" style="text;strokeColor=none;fillColor=none;align=center;verticalAlign=middle;whiteSpace=wrap;" vertex="1" parent="PhnPV0rfydqtkL6QS3ha-8">
          <mxGeometry x="30" width="2091" height="20" as="geometry" />
        </mxCell>
        <mxCell id="PhnPV0rfydqtkL6QS3ha-10" value="[Password valid]" style="shape=line;dashed=1;whiteSpace=wrap;verticalAlign=top;labelPosition=center;verticalLabelPosition=middle;align=center;strokeColor=#B3B3B3;strokeWidth=5;" vertex="1" parent="PhnPV0rfydqtkL6QS3ha-8">
          <mxGeometry y="194" width="2121" height="2" as="geometry" />
        </mxCell>
        <mxCell id="PhnPV0rfydqtkL6QS3ha-11" value="alt" style="shape=umlFrame;dashed=1;pointerEvents=0;dropTarget=0;strokeColor=#B3B3B3;height=20;width=30;strokeWidth=5;" vertex="1" parent="1">
          <mxGeometry x="50" y="523" width="2141" height="1671" as="geometry" />
        </mxCell>
        <mxCell id="PhnPV0rfydqtkL6QS3ha-12" value="[User already exists]" style="text;strokeColor=none;fillColor=none;align=center;verticalAlign=middle;whiteSpace=wrap;" vertex="1" parent="PhnPV0rfydqtkL6QS3ha-11">
          <mxGeometry x="30" width="2111" height="20" as="geometry" />
        </mxCell>
        <mxCell id="PhnPV0rfydqtkL6QS3ha-13" value="[New user]" style="shape=line;dashed=1;whiteSpace=wrap;verticalAlign=top;labelPosition=center;verticalLabelPosition=middle;align=center;strokeColor=#B3B3B3;" vertex="1" parent="PhnPV0rfydqtkL6QS3ha-11">
          <mxGeometry y="290" width="2141" height="2" as="geometry" />
        </mxCell>
        <mxCell id="PhnPV0rfydqtkL6QS3ha-14" value="alt" style="shape=umlFrame;dashed=1;pointerEvents=0;dropTarget=0;strokeColor=#B3B3B3;height=20;width=30;strokeWidth=5;" vertex="1" parent="1">
          <mxGeometry x="84" y="3785" width="2097" height="582" as="geometry" />
        </mxCell>
        <mxCell id="PhnPV0rfydqtkL6QS3ha-15" value="[Invalid password]" style="text;strokeColor=none;fillColor=none;align=center;verticalAlign=middle;whiteSpace=wrap;" vertex="1" parent="PhnPV0rfydqtkL6QS3ha-14">
          <mxGeometry x="30" width="2067" height="20" as="geometry" />
        </mxCell>
        <mxCell id="PhnPV0rfydqtkL6QS3ha-16" value="[Valid password]" style="shape=line;dashed=1;whiteSpace=wrap;verticalAlign=top;labelPosition=center;verticalLabelPosition=middle;align=center;strokeColor=#B3B3B3;" vertex="1" parent="PhnPV0rfydqtkL6QS3ha-14">
          <mxGeometry y="194" width="2097" height="2" as="geometry" />
        </mxCell>
        <mxCell id="PhnPV0rfydqtkL6QS3ha-17" value="alt" style="shape=umlFrame;dashed=1;pointerEvents=0;dropTarget=0;strokeColor=#B3B3B3;height=20;width=30;strokeWidth=5;" vertex="1" parent="1">
          <mxGeometry x="74" y="3011" width="2117" height="1366" as="geometry" />
        </mxCell>
        <mxCell id="PhnPV0rfydqtkL6QS3ha-18" value="[Email not verified]" style="text;strokeColor=none;fillColor=none;align=center;verticalAlign=middle;whiteSpace=wrap;" vertex="1" parent="PhnPV0rfydqtkL6QS3ha-17">
          <mxGeometry x="30" width="2087" height="20" as="geometry" />
        </mxCell>
        <mxCell id="PhnPV0rfydqtkL6QS3ha-19" value="[Email verified]" style="shape=line;dashed=1;whiteSpace=wrap;verticalAlign=top;labelPosition=center;verticalLabelPosition=middle;align=center;strokeColor=#B3B3B3;" vertex="1" parent="PhnPV0rfydqtkL6QS3ha-17">
          <mxGeometry y="656" width="2117" height="2" as="geometry" />
        </mxCell>
        <mxCell id="PhnPV0rfydqtkL6QS3ha-20" value="alt" style="shape=umlFrame;dashed=1;pointerEvents=0;dropTarget=0;strokeColor=#B3B3B3;height=20;width=30;strokeWidth=5;" vertex="1" parent="1">
          <mxGeometry x="64" y="2585" width="2137" height="1802" as="geometry" />
        </mxCell>
        <mxCell id="PhnPV0rfydqtkL6QS3ha-21" value="[User not found]" style="text;strokeColor=none;fillColor=none;align=center;verticalAlign=middle;whiteSpace=wrap;" vertex="1" parent="PhnPV0rfydqtkL6QS3ha-20">
          <mxGeometry x="30" width="2107" height="20" as="geometry" />
        </mxCell>
        <mxCell id="PhnPV0rfydqtkL6QS3ha-22" value="[User found]" style="shape=line;dashed=1;whiteSpace=wrap;verticalAlign=top;labelPosition=center;verticalLabelPosition=middle;align=center;strokeColor=#B3B3B3;" vertex="1" parent="PhnPV0rfydqtkL6QS3ha-20">
          <mxGeometry y="290" width="2137" height="2" as="geometry" />
        </mxCell>
        <mxCell id="PhnPV0rfydqtkL6QS3ha-23" value="alt" style="shape=umlFrame;dashed=1;pointerEvents=0;dropTarget=0;strokeColor=#B3B3B3;height=20;width=30;strokeWidth=5;" vertex="1" parent="1">
          <mxGeometry x="40" y="95" width="2171" height="4302" as="geometry" />
        </mxCell>
        <mxCell id="PhnPV0rfydqtkL6QS3ha-24" value="[Registration Process]" style="text;strokeColor=none;fillColor=none;align=center;verticalAlign=middle;whiteSpace=wrap;" vertex="1" parent="PhnPV0rfydqtkL6QS3ha-23">
          <mxGeometry x="30" width="2141" height="20" as="geometry" />
        </mxCell>
        <mxCell id="PhnPV0rfydqtkL6QS3ha-25" value="[Login Process]" style="shape=line;dashed=1;whiteSpace=wrap;verticalAlign=top;labelPosition=center;verticalLabelPosition=middle;align=center;strokeColor=#B3B3B3;" vertex="1" parent="PhnPV0rfydqtkL6QS3ha-23">
          <mxGeometry y="2114" width="2171" height="2" as="geometry" />
        </mxCell>
        <mxCell id="PhnPV0rfydqtkL6QS3ha-26" value="alt" style="shape=umlFrame;dashed=1;pointerEvents=0;dropTarget=0;strokeColor=#B3B3B3;height=20;width=30;strokeWidth=5;" vertex="1" parent="1">
          <mxGeometry x="84" y="5866" width="2097" height="792" as="geometry" />
        </mxCell>
        <mxCell id="PhnPV0rfydqtkL6QS3ha-27" value="[Token invalid or expired]" style="text;strokeColor=none;fillColor=none;align=center;verticalAlign=middle;whiteSpace=wrap;" vertex="1" parent="PhnPV0rfydqtkL6QS3ha-26">
          <mxGeometry x="30" width="2067" height="20" as="geometry" />
        </mxCell>
        <mxCell id="PhnPV0rfydqtkL6QS3ha-28" value="[Token valid]" style="shape=line;dashed=1;whiteSpace=wrap;verticalAlign=top;labelPosition=center;verticalLabelPosition=middle;align=center;strokeColor=#B3B3B3;strokeWidth=5;" vertex="1" parent="PhnPV0rfydqtkL6QS3ha-26">
          <mxGeometry y="242" width="2097" height="2" as="geometry" />
        </mxCell>
        <mxCell id="PhnPV0rfydqtkL6QS3ha-29" value="alt" style="shape=umlFrame;dashed=1;pointerEvents=0;dropTarget=0;strokeColor=#B3B3B3;height=20;width=30;strokeWidth=5;" vertex="1" parent="1">
          <mxGeometry x="60" y="4788" width="2131" height="1880" as="geometry" />
        </mxCell>
        <mxCell id="PhnPV0rfydqtkL6QS3ha-30" value="[User not found]" style="text;strokeColor=none;fillColor=none;align=center;verticalAlign=middle;whiteSpace=wrap;" vertex="1" parent="PhnPV0rfydqtkL6QS3ha-29">
          <mxGeometry x="30" width="2101" height="20" as="geometry" />
        </mxCell>
        <mxCell id="PhnPV0rfydqtkL6QS3ha-31" value="[User found]" style="shape=line;dashed=1;whiteSpace=wrap;verticalAlign=top;labelPosition=center;verticalLabelPosition=middle;align=center;strokeColor=#B3B3B3;strokeWidth=5;" vertex="1" parent="PhnPV0rfydqtkL6QS3ha-29">
          <mxGeometry y="290" width="2131" height="2" as="geometry" />
        </mxCell>
        <mxCell id="PhnPV0rfydqtkL6QS3ha-32" value="opt" style="shape=umlFrame;dashed=1;pointerEvents=0;dropTarget=0;strokeColor=#B3B3B3;height=20;width=30" vertex="1" parent="1">
          <mxGeometry x="50" y="4407" width="2151" height="2271" as="geometry" />
        </mxCell>
        <mxCell id="PhnPV0rfydqtkL6QS3ha-33" value="[Password Reset Flow]" style="text;strokeColor=none;fillColor=none;align=center;verticalAlign=middle;whiteSpace=wrap;" vertex="1" parent="PhnPV0rfydqtkL6QS3ha-32">
          <mxGeometry x="30" width="2121" height="20" as="geometry" />
        </mxCell>
        <mxCell id="PhnPV0rfydqtkL6QS3ha-34" value="opt" style="shape=umlFrame;dashed=1;pointerEvents=0;dropTarget=0;strokeColor=#B3B3B3;height=20;width=30;strokeWidth=5;" vertex="1" parent="1">
          <mxGeometry x="84" y="6688" width="2097" height="554" as="geometry" />
        </mxCell>
        <mxCell id="PhnPV0rfydqtkL6QS3ha-35" value="[Logout Flow]" style="text;strokeColor=none;fillColor=none;align=center;verticalAlign=middle;whiteSpace=wrap;" vertex="1" parent="PhnPV0rfydqtkL6QS3ha-34">
          <mxGeometry x="30" width="2067" height="20" as="geometry" />
        </mxCell>
        <mxCell id="PhnPV0rfydqtkL6QS3ha-36" value="Click &quot;Register&quot;" style="verticalAlign=bottom;edgeStyle=elbowEdgeStyle;elbow=vertical;curved=0;rounded=0;endArrow=block;" edge="1" parent="1" source="PhnPV0rfydqtkL6QS3ha-1" target="PhnPV0rfydqtkL6QS3ha-2">
          <mxGeometry relative="1" as="geometry">
            <Array as="points">
              <mxPoint x="375" y="168" />
            </Array>
          </mxGeometry>
        </mxCell>
        <mxCell id="PhnPV0rfydqtkL6QS3ha-37" value="Display registration form" style="verticalAlign=bottom;edgeStyle=elbowEdgeStyle;elbow=vertical;curved=0;rounded=0;dashed=1;dashPattern=2 3;endArrow=block;" edge="1" parent="1" source="PhnPV0rfydqtkL6QS3ha-2" target="PhnPV0rfydqtkL6QS3ha-1">
          <mxGeometry relative="1" as="geometry">
            <Array as="points">
              <mxPoint x="378" y="216" />
            </Array>
          </mxGeometry>
        </mxCell>
        <mxCell id="PhnPV0rfydqtkL6QS3ha-38" value="Enter registration details" style="verticalAlign=bottom;edgeStyle=elbowEdgeStyle;elbow=vertical;curved=0;rounded=0;endArrow=block;" edge="1" parent="1" source="PhnPV0rfydqtkL6QS3ha-1" target="PhnPV0rfydqtkL6QS3ha-2">
          <mxGeometry relative="1" as="geometry">
            <Array as="points">
              <mxPoint x="375" y="264" />
            </Array>
          </mxGeometry>
        </mxCell>
        <mxCell id="PhnPV0rfydqtkL6QS3ha-39" value="POST /auth/register" style="verticalAlign=bottom;edgeStyle=elbowEdgeStyle;elbow=vertical;curved=0;rounded=0;endArrow=block;" edge="1" parent="1" source="PhnPV0rfydqtkL6QS3ha-2" target="PhnPV0rfydqtkL6QS3ha-3">
          <mxGeometry relative="1" as="geometry">
            <Array as="points">
              <mxPoint x="803" y="359" />
            </Array>
          </mxGeometry>
        </mxCell>
        <mxCell id="PhnPV0rfydqtkL6QS3ha-40" value="register(userData)" style="verticalAlign=bottom;edgeStyle=elbowEdgeStyle;elbow=vertical;curved=0;rounded=0;endArrow=block;" edge="1" parent="1" source="PhnPV0rfydqtkL6QS3ha-3" target="PhnPV0rfydqtkL6QS3ha-4">
          <mxGeometry relative="1" as="geometry">
            <Array as="points">
              <mxPoint x="1179" y="407" />
            </Array>
          </mxGeometry>
        </mxCell>
        <mxCell id="PhnPV0rfydqtkL6QS3ha-41" value="checkUserExists(email)" style="verticalAlign=bottom;edgeStyle=elbowEdgeStyle;elbow=vertical;curved=0;rounded=0;endArrow=block;" edge="1" parent="1" source="PhnPV0rfydqtkL6QS3ha-4" target="PhnPV0rfydqtkL6QS3ha-5">
          <mxGeometry relative="1" as="geometry">
            <Array as="points">
              <mxPoint x="1588" y="455" />
            </Array>
          </mxGeometry>
        </mxCell>
        <mxCell id="PhnPV0rfydqtkL6QS3ha-42" value="query user by email" style="verticalAlign=bottom;edgeStyle=elbowEdgeStyle;elbow=vertical;curved=0;rounded=0;endArrow=block;" edge="1" parent="1" source="PhnPV0rfydqtkL6QS3ha-5" target="PhnPV0rfydqtkL6QS3ha-7">
          <mxGeometry relative="1" as="geometry">
            <Array as="points">
              <mxPoint x="1979" y="503" />
            </Array>
          </mxGeometry>
        </mxCell>
        <mxCell id="PhnPV0rfydqtkL6QS3ha-43" value="user found" style="verticalAlign=bottom;edgeStyle=elbowEdgeStyle;elbow=vertical;curved=0;rounded=0;dashed=1;dashPattern=2 3;endArrow=block;" edge="1" parent="1" source="PhnPV0rfydqtkL6QS3ha-7" target="PhnPV0rfydqtkL6QS3ha-5">
          <mxGeometry relative="1" as="geometry">
            <Array as="points">
              <mxPoint x="1982" y="596" />
            </Array>
          </mxGeometry>
        </mxCell>
        <mxCell id="PhnPV0rfydqtkL6QS3ha-44" value="email already in use" style="verticalAlign=bottom;edgeStyle=elbowEdgeStyle;elbow=vertical;curved=0;rounded=0;dashed=1;dashPattern=2 3;endArrow=block;" edge="1" parent="1" source="PhnPV0rfydqtkL6QS3ha-5" target="PhnPV0rfydqtkL6QS3ha-4">
          <mxGeometry relative="1" as="geometry">
            <Array as="points">
              <mxPoint x="1591" y="644" />
            </Array>
          </mxGeometry>
        </mxCell>
        <mxCell id="PhnPV0rfydqtkL6QS3ha-45" value="registration error (duplicate)" style="verticalAlign=bottom;edgeStyle=elbowEdgeStyle;elbow=vertical;curved=0;rounded=0;dashed=1;dashPattern=2 3;endArrow=block;" edge="1" parent="1" source="PhnPV0rfydqtkL6QS3ha-4" target="PhnPV0rfydqtkL6QS3ha-3">
          <mxGeometry relative="1" as="geometry">
            <Array as="points">
              <mxPoint x="1182" y="692" />
            </Array>
          </mxGeometry>
        </mxCell>
        <mxCell id="PhnPV0rfydqtkL6QS3ha-46" value="error response" style="verticalAlign=bottom;edgeStyle=elbowEdgeStyle;elbow=vertical;curved=0;rounded=0;dashed=1;dashPattern=2 3;endArrow=block;" edge="1" parent="1" source="PhnPV0rfydqtkL6QS3ha-3" target="PhnPV0rfydqtkL6QS3ha-2">
          <mxGeometry relative="1" as="geometry">
            <Array as="points">
              <mxPoint x="806" y="740" />
            </Array>
          </mxGeometry>
        </mxCell>
        <mxCell id="PhnPV0rfydqtkL6QS3ha-47" value="Display &quot;Email already in use&quot;" style="verticalAlign=bottom;edgeStyle=elbowEdgeStyle;elbow=vertical;curved=0;rounded=0;dashed=1;dashPattern=2 3;endArrow=block;" edge="1" parent="1" source="PhnPV0rfydqtkL6QS3ha-2" target="PhnPV0rfydqtkL6QS3ha-1">
          <mxGeometry relative="1" as="geometry">
            <Array as="points">
              <mxPoint x="378" y="788" />
            </Array>
          </mxGeometry>
        </mxCell>
        <mxCell id="PhnPV0rfydqtkL6QS3ha-48" value="no user found" style="verticalAlign=bottom;edgeStyle=elbowEdgeStyle;elbow=vertical;curved=0;rounded=0;dashed=1;dashPattern=2 3;endArrow=block;" edge="1" parent="1" source="PhnPV0rfydqtkL6QS3ha-7" target="PhnPV0rfydqtkL6QS3ha-5">
          <mxGeometry relative="1" as="geometry">
            <Array as="points">
              <mxPoint x="1982" y="881" />
            </Array>
          </mxGeometry>
        </mxCell>
        <mxCell id="PhnPV0rfydqtkL6QS3ha-49" value="validatePassword(password)" style="curved=1;endArrow=block;rounded=0;" edge="1" parent="1" source="PhnPV0rfydqtkL6QS3ha-4" target="PhnPV0rfydqtkL6QS3ha-4">
          <mxGeometry relative="1" as="geometry">
            <Array as="points">
              <mxPoint x="1440" y="929" />
              <mxPoint x="1440" y="959" />
            </Array>
          </mxGeometry>
        </mxCell>
        <mxCell id="PhnPV0rfydqtkL6QS3ha-50" value="invalid password error" style="verticalAlign=bottom;edgeStyle=elbowEdgeStyle;elbow=vertical;curved=0;rounded=0;dashed=1;dashPattern=2 3;endArrow=block;" edge="1" parent="1" source="PhnPV0rfydqtkL6QS3ha-4" target="PhnPV0rfydqtkL6QS3ha-3">
          <mxGeometry relative="1" as="geometry">
            <Array as="points">
              <mxPoint x="1182" y="1052" />
            </Array>
          </mxGeometry>
        </mxCell>
        <mxCell id="PhnPV0rfydqtkL6QS3ha-51" value="validation error" style="verticalAlign=bottom;edgeStyle=elbowEdgeStyle;elbow=vertical;curved=0;rounded=0;dashed=1;dashPattern=2 3;endArrow=block;" edge="1" parent="1" source="PhnPV0rfydqtkL6QS3ha-3" target="PhnPV0rfydqtkL6QS3ha-2">
          <mxGeometry relative="1" as="geometry">
            <Array as="points">
              <mxPoint x="806" y="1100" />
            </Array>
          </mxGeometry>
        </mxCell>
        <mxCell id="PhnPV0rfydqtkL6QS3ha-52" value="Display password requirements" style="verticalAlign=bottom;edgeStyle=elbowEdgeStyle;elbow=vertical;curved=0;rounded=0;dashed=1;dashPattern=2 3;endArrow=block;" edge="1" parent="1" source="PhnPV0rfydqtkL6QS3ha-2" target="PhnPV0rfydqtkL6QS3ha-1">
          <mxGeometry relative="1" as="geometry">
            <Array as="points">
              <mxPoint x="378" y="1148" />
            </Array>
          </mxGeometry>
        </mxCell>
        <mxCell id="PhnPV0rfydqtkL6QS3ha-53" value="hashPassword(password)" style="curved=1;endArrow=block;rounded=0;" edge="1" parent="1" source="PhnPV0rfydqtkL6QS3ha-5" target="PhnPV0rfydqtkL6QS3ha-5">
          <mxGeometry relative="1" as="geometry">
            <Array as="points">
              <mxPoint x="1821" y="1241" />
              <mxPoint x="1821" y="1271" />
            </Array>
          </mxGeometry>
        </mxCell>
        <mxCell id="PhnPV0rfydqtkL6QS3ha-54" value="insert new user" style="verticalAlign=bottom;edgeStyle=elbowEdgeStyle;elbow=vertical;curved=0;rounded=0;endArrow=block;" edge="1" parent="1" source="PhnPV0rfydqtkL6QS3ha-5" target="PhnPV0rfydqtkL6QS3ha-7">
          <mxGeometry relative="1" as="geometry">
            <Array as="points">
              <mxPoint x="1979" y="1319" />
            </Array>
          </mxGeometry>
        </mxCell>
        <mxCell id="PhnPV0rfydqtkL6QS3ha-55" value="user created" style="verticalAlign=bottom;edgeStyle=elbowEdgeStyle;elbow=vertical;curved=0;rounded=0;dashed=1;dashPattern=2 3;endArrow=block;" edge="1" parent="1" source="PhnPV0rfydqtkL6QS3ha-7" target="PhnPV0rfydqtkL6QS3ha-5">
          <mxGeometry relative="1" as="geometry">
            <Array as="points">
              <mxPoint x="1982" y="1367" />
            </Array>
          </mxGeometry>
        </mxCell>
        <mxCell id="PhnPV0rfydqtkL6QS3ha-56" value="user creation successful" style="verticalAlign=bottom;edgeStyle=elbowEdgeStyle;elbow=vertical;curved=0;rounded=0;dashed=1;dashPattern=2 3;endArrow=block;" edge="1" parent="1" source="PhnPV0rfydqtkL6QS3ha-5" target="PhnPV0rfydqtkL6QS3ha-4">
          <mxGeometry relative="1" as="geometry">
            <Array as="points">
              <mxPoint x="1591" y="1415" />
            </Array>
          </mxGeometry>
        </mxCell>
        <mxCell id="PhnPV0rfydqtkL6QS3ha-57" value="generateVerificationToken()" style="curved=1;endArrow=block;rounded=0;" edge="1" parent="1" source="PhnPV0rfydqtkL6QS3ha-4" target="PhnPV0rfydqtkL6QS3ha-4">
          <mxGeometry relative="1" as="geometry">
            <Array as="points">
              <mxPoint x="1440" y="1463" />
              <mxPoint x="1440" y="1493" />
            </Array>
          </mxGeometry>
        </mxCell>
        <mxCell id="PhnPV0rfydqtkL6QS3ha-58" value="sendVerificationEmail(email, token)" style="verticalAlign=bottom;edgeStyle=elbowEdgeStyle;elbow=vertical;curved=0;rounded=0;endArrow=block;" edge="1" parent="1" source="PhnPV0rfydqtkL6QS3ha-4" target="PhnPV0rfydqtkL6QS3ha-6">
          <mxGeometry relative="1" as="geometry">
            <Array as="points">
              <mxPoint x="1688" y="1541" />
            </Array>
          </mxGeometry>
        </mxCell>
        <mxCell id="PhnPV0rfydqtkL6QS3ha-59" value="email sent status" style="verticalAlign=bottom;edgeStyle=elbowEdgeStyle;elbow=vertical;curved=0;rounded=0;dashed=1;dashPattern=2 3;endArrow=block;" edge="1" parent="1" source="PhnPV0rfydqtkL6QS3ha-6" target="PhnPV0rfydqtkL6QS3ha-4">
          <mxGeometry relative="1" as="geometry">
            <Array as="points">
              <mxPoint x="1691" y="1589" />
            </Array>
          </mxGeometry>
        </mxCell>
        <mxCell id="PhnPV0rfydqtkL6QS3ha-60" value="registration successful" style="verticalAlign=bottom;edgeStyle=elbowEdgeStyle;elbow=vertical;curved=0;rounded=0;dashed=1;dashPattern=2 3;endArrow=block;" edge="1" parent="1" source="PhnPV0rfydqtkL6QS3ha-4" target="PhnPV0rfydqtkL6QS3ha-3">
          <mxGeometry relative="1" as="geometry">
            <Array as="points">
              <mxPoint x="1182" y="1637" />
            </Array>
          </mxGeometry>
        </mxCell>
        <mxCell id="PhnPV0rfydqtkL6QS3ha-61" value="success response" style="verticalAlign=bottom;edgeStyle=elbowEdgeStyle;elbow=vertical;curved=0;rounded=0;dashed=1;dashPattern=2 3;endArrow=block;" edge="1" parent="1" source="PhnPV0rfydqtkL6QS3ha-3" target="PhnPV0rfydqtkL6QS3ha-2">
          <mxGeometry relative="1" as="geometry">
            <Array as="points">
              <mxPoint x="806" y="1685" />
            </Array>
          </mxGeometry>
        </mxCell>
        <mxCell id="PhnPV0rfydqtkL6QS3ha-62" value="Display &quot;Registration successful! Please verify your email.&quot;" style="verticalAlign=bottom;edgeStyle=elbowEdgeStyle;elbow=vertical;curved=0;rounded=0;dashed=1;dashPattern=2 3;endArrow=block;" edge="1" parent="1" source="PhnPV0rfydqtkL6QS3ha-2" target="PhnPV0rfydqtkL6QS3ha-1">
          <mxGeometry relative="1" as="geometry">
            <Array as="points">
              <mxPoint x="378" y="1733" />
            </Array>
          </mxGeometry>
        </mxCell>
        <mxCell id="PhnPV0rfydqtkL6QS3ha-63" value="Click verification link" style="verticalAlign=bottom;edgeStyle=elbowEdgeStyle;elbow=vertical;curved=0;rounded=0;endArrow=block;" edge="1" parent="1" source="PhnPV0rfydqtkL6QS3ha-1" target="PhnPV0rfydqtkL6QS3ha-2">
          <mxGeometry relative="1" as="geometry">
            <Array as="points">
              <mxPoint x="375" y="1828" />
            </Array>
          </mxGeometry>
        </mxCell>
        <mxCell id="PhnPV0rfydqtkL6QS3ha-64" value="GET /auth/verify?token=xyz" style="verticalAlign=bottom;edgeStyle=elbowEdgeStyle;elbow=vertical;curved=0;rounded=0;endArrow=block;" edge="1" parent="1" source="PhnPV0rfydqtkL6QS3ha-2" target="PhnPV0rfydqtkL6QS3ha-3">
          <mxGeometry relative="1" as="geometry">
            <Array as="points">
              <mxPoint x="803" y="1876" />
            </Array>
          </mxGeometry>
        </mxCell>
        <mxCell id="PhnPV0rfydqtkL6QS3ha-65" value="verifyEmail(token)" style="verticalAlign=bottom;edgeStyle=elbowEdgeStyle;elbow=vertical;curved=0;rounded=0;endArrow=block;" edge="1" parent="1" source="PhnPV0rfydqtkL6QS3ha-3" target="PhnPV0rfydqtkL6QS3ha-4">
          <mxGeometry relative="1" as="geometry">
            <Array as="points">
              <mxPoint x="1179" y="1924" />
            </Array>
          </mxGeometry>
        </mxCell>
        <mxCell id="PhnPV0rfydqtkL6QS3ha-66" value="update user (verified=true)" style="verticalAlign=bottom;edgeStyle=elbowEdgeStyle;elbow=vertical;curved=0;rounded=0;endArrow=block;" edge="1" parent="1" source="PhnPV0rfydqtkL6QS3ha-4" target="PhnPV0rfydqtkL6QS3ha-7">
          <mxGeometry relative="1" as="geometry">
            <Array as="points">
              <mxPoint x="1788" y="1972" />
            </Array>
          </mxGeometry>
        </mxCell>
        <mxCell id="PhnPV0rfydqtkL6QS3ha-67" value="update successful" style="verticalAlign=bottom;edgeStyle=elbowEdgeStyle;elbow=vertical;curved=0;rounded=0;dashed=1;dashPattern=2 3;endArrow=block;" edge="1" parent="1" source="PhnPV0rfydqtkL6QS3ha-7" target="PhnPV0rfydqtkL6QS3ha-4">
          <mxGeometry relative="1" as="geometry">
            <Array as="points">
              <mxPoint x="1791" y="2020" />
            </Array>
          </mxGeometry>
        </mxCell>
        <mxCell id="PhnPV0rfydqtkL6QS3ha-68" value="verification successful" style="verticalAlign=bottom;edgeStyle=elbowEdgeStyle;elbow=vertical;curved=0;rounded=0;dashed=1;dashPattern=2 3;endArrow=block;" edge="1" parent="1" source="PhnPV0rfydqtkL6QS3ha-4" target="PhnPV0rfydqtkL6QS3ha-3">
          <mxGeometry relative="1" as="geometry">
            <Array as="points">
              <mxPoint x="1182" y="2068" />
            </Array>
          </mxGeometry>
        </mxCell>
        <mxCell id="PhnPV0rfydqtkL6QS3ha-69" value="success response" style="verticalAlign=bottom;edgeStyle=elbowEdgeStyle;elbow=vertical;curved=0;rounded=0;dashed=1;dashPattern=2 3;endArrow=block;" edge="1" parent="1" source="PhnPV0rfydqtkL6QS3ha-3" target="PhnPV0rfydqtkL6QS3ha-2">
          <mxGeometry relative="1" as="geometry">
            <Array as="points">
              <mxPoint x="806" y="2116" />
            </Array>
          </mxGeometry>
        </mxCell>
        <mxCell id="PhnPV0rfydqtkL6QS3ha-70" value="Display &quot;Email verified! You can now login.&quot;" style="verticalAlign=bottom;edgeStyle=elbowEdgeStyle;elbow=vertical;curved=0;rounded=0;dashed=1;dashPattern=2 3;endArrow=block;" edge="1" parent="1" source="PhnPV0rfydqtkL6QS3ha-2" target="PhnPV0rfydqtkL6QS3ha-1">
          <mxGeometry relative="1" as="geometry">
            <Array as="points">
              <mxPoint x="378" y="2164" />
            </Array>
          </mxGeometry>
        </mxCell>
        <mxCell id="PhnPV0rfydqtkL6QS3ha-71" value="Click &quot;Login&quot;" style="verticalAlign=bottom;edgeStyle=elbowEdgeStyle;elbow=vertical;curved=0;rounded=0;endArrow=block;" edge="1" parent="1" source="PhnPV0rfydqtkL6QS3ha-1" target="PhnPV0rfydqtkL6QS3ha-2">
          <mxGeometry relative="1" as="geometry">
            <Array as="points">
              <mxPoint x="375" y="2277" />
            </Array>
          </mxGeometry>
        </mxCell>
        <mxCell id="PhnPV0rfydqtkL6QS3ha-72" value="Display login form" style="verticalAlign=bottom;edgeStyle=elbowEdgeStyle;elbow=vertical;curved=0;rounded=0;dashed=1;dashPattern=2 3;endArrow=block;" edge="1" parent="1" source="PhnPV0rfydqtkL6QS3ha-2" target="PhnPV0rfydqtkL6QS3ha-1">
          <mxGeometry relative="1" as="geometry">
            <Array as="points">
              <mxPoint x="378" y="2325" />
            </Array>
          </mxGeometry>
        </mxCell>
        <mxCell id="PhnPV0rfydqtkL6QS3ha-73" value="Enter credentials" style="verticalAlign=bottom;edgeStyle=elbowEdgeStyle;elbow=vertical;curved=0;rounded=0;endArrow=block;" edge="1" parent="1" source="PhnPV0rfydqtkL6QS3ha-1" target="PhnPV0rfydqtkL6QS3ha-2">
          <mxGeometry relative="1" as="geometry">
            <Array as="points">
              <mxPoint x="375" y="2373" />
            </Array>
          </mxGeometry>
        </mxCell>
        <mxCell id="PhnPV0rfydqtkL6QS3ha-74" value="POST /auth/login" style="verticalAlign=bottom;edgeStyle=elbowEdgeStyle;elbow=vertical;curved=0;rounded=0;endArrow=block;" edge="1" parent="1" source="PhnPV0rfydqtkL6QS3ha-2" target="PhnPV0rfydqtkL6QS3ha-3">
          <mxGeometry relative="1" as="geometry">
            <Array as="points">
              <mxPoint x="803" y="2421" />
            </Array>
          </mxGeometry>
        </mxCell>
        <mxCell id="PhnPV0rfydqtkL6QS3ha-75" value="login(email, password)" style="verticalAlign=bottom;edgeStyle=elbowEdgeStyle;elbow=vertical;curved=0;rounded=0;endArrow=block;" edge="1" parent="1" source="PhnPV0rfydqtkL6QS3ha-3" target="PhnPV0rfydqtkL6QS3ha-4">
          <mxGeometry relative="1" as="geometry">
            <Array as="points">
              <mxPoint x="1179" y="2469" />
            </Array>
          </mxGeometry>
        </mxCell>
        <mxCell id="PhnPV0rfydqtkL6QS3ha-76" value="getUser(email)" style="verticalAlign=bottom;edgeStyle=elbowEdgeStyle;elbow=vertical;curved=0;rounded=0;endArrow=block;" edge="1" parent="1" source="PhnPV0rfydqtkL6QS3ha-4" target="PhnPV0rfydqtkL6QS3ha-5">
          <mxGeometry relative="1" as="geometry">
            <Array as="points">
              <mxPoint x="1588" y="2517" />
            </Array>
          </mxGeometry>
        </mxCell>
        <mxCell id="PhnPV0rfydqtkL6QS3ha-77" value="query user" style="verticalAlign=bottom;edgeStyle=elbowEdgeStyle;elbow=vertical;curved=0;rounded=0;endArrow=block;" edge="1" parent="1" source="PhnPV0rfydqtkL6QS3ha-5" target="PhnPV0rfydqtkL6QS3ha-7">
          <mxGeometry relative="1" as="geometry">
            <Array as="points">
              <mxPoint x="1979" y="2565" />
            </Array>
          </mxGeometry>
        </mxCell>
        <mxCell id="PhnPV0rfydqtkL6QS3ha-78" value="no user found" style="verticalAlign=bottom;edgeStyle=elbowEdgeStyle;elbow=vertical;curved=0;rounded=0;dashed=1;dashPattern=2 3;endArrow=block;" edge="1" parent="1" source="PhnPV0rfydqtkL6QS3ha-7" target="PhnPV0rfydqtkL6QS3ha-5">
          <mxGeometry relative="1" as="geometry">
            <Array as="points">
              <mxPoint x="1982" y="2658" />
            </Array>
          </mxGeometry>
        </mxCell>
        <mxCell id="PhnPV0rfydqtkL6QS3ha-79" value="user not found" style="verticalAlign=bottom;edgeStyle=elbowEdgeStyle;elbow=vertical;curved=0;rounded=0;dashed=1;dashPattern=2 3;endArrow=block;" edge="1" parent="1" source="PhnPV0rfydqtkL6QS3ha-5" target="PhnPV0rfydqtkL6QS3ha-4">
          <mxGeometry relative="1" as="geometry">
            <Array as="points">
              <mxPoint x="1591" y="2706" />
            </Array>
          </mxGeometry>
        </mxCell>
        <mxCell id="PhnPV0rfydqtkL6QS3ha-80" value="authentication failed" style="verticalAlign=bottom;edgeStyle=elbowEdgeStyle;elbow=vertical;curved=0;rounded=0;dashed=1;dashPattern=2 3;endArrow=block;" edge="1" parent="1" source="PhnPV0rfydqtkL6QS3ha-4" target="PhnPV0rfydqtkL6QS3ha-3">
          <mxGeometry relative="1" as="geometry">
            <Array as="points">
              <mxPoint x="1182" y="2754" />
            </Array>
          </mxGeometry>
        </mxCell>
        <mxCell id="PhnPV0rfydqtkL6QS3ha-81" value="error response" style="verticalAlign=bottom;edgeStyle=elbowEdgeStyle;elbow=vertical;curved=0;rounded=0;dashed=1;dashPattern=2 3;endArrow=block;" edge="1" parent="1" source="PhnPV0rfydqtkL6QS3ha-3" target="PhnPV0rfydqtkL6QS3ha-2">
          <mxGeometry relative="1" as="geometry">
            <Array as="points">
              <mxPoint x="806" y="2802" />
            </Array>
          </mxGeometry>
        </mxCell>
        <mxCell id="PhnPV0rfydqtkL6QS3ha-82" value="Display &quot;Invalid email or password&quot;" style="verticalAlign=bottom;edgeStyle=elbowEdgeStyle;elbow=vertical;curved=0;rounded=0;dashed=1;dashPattern=2 3;endArrow=block;" edge="1" parent="1" source="PhnPV0rfydqtkL6QS3ha-2" target="PhnPV0rfydqtkL6QS3ha-1">
          <mxGeometry relative="1" as="geometry">
            <Array as="points">
              <mxPoint x="378" y="2850" />
            </Array>
          </mxGeometry>
        </mxCell>
        <mxCell id="PhnPV0rfydqtkL6QS3ha-83" value="user data" style="verticalAlign=bottom;edgeStyle=elbowEdgeStyle;elbow=vertical;curved=0;rounded=0;dashed=1;dashPattern=2 3;endArrow=block;" edge="1" parent="1" source="PhnPV0rfydqtkL6QS3ha-7" target="PhnPV0rfydqtkL6QS3ha-5">
          <mxGeometry relative="1" as="geometry">
            <Array as="points">
              <mxPoint x="1982" y="2943" />
            </Array>
          </mxGeometry>
        </mxCell>
        <mxCell id="PhnPV0rfydqtkL6QS3ha-84" value="user data" style="verticalAlign=bottom;edgeStyle=elbowEdgeStyle;elbow=vertical;curved=0;rounded=0;dashed=1;dashPattern=2 3;endArrow=block;" edge="1" parent="1" source="PhnPV0rfydqtkL6QS3ha-5" target="PhnPV0rfydqtkL6QS3ha-4">
          <mxGeometry relative="1" as="geometry">
            <Array as="points">
              <mxPoint x="1591" y="2991" />
            </Array>
          </mxGeometry>
        </mxCell>
        <mxCell id="PhnPV0rfydqtkL6QS3ha-85" value="email not verified error" style="verticalAlign=bottom;edgeStyle=elbowEdgeStyle;elbow=vertical;curved=0;rounded=0;dashed=1;dashPattern=2 3;endArrow=block;" edge="1" parent="1" source="PhnPV0rfydqtkL6QS3ha-4" target="PhnPV0rfydqtkL6QS3ha-3">
          <mxGeometry relative="1" as="geometry">
            <Array as="points">
              <mxPoint x="1182" y="3084" />
            </Array>
          </mxGeometry>
        </mxCell>
        <mxCell id="PhnPV0rfydqtkL6QS3ha-86" value="auth error" style="verticalAlign=bottom;edgeStyle=elbowEdgeStyle;elbow=vertical;curved=0;rounded=0;dashed=1;dashPattern=2 3;endArrow=block;" edge="1" parent="1" source="PhnPV0rfydqtkL6QS3ha-3" target="PhnPV0rfydqtkL6QS3ha-2">
          <mxGeometry relative="1" as="geometry">
            <Array as="points">
              <mxPoint x="806" y="3132" />
            </Array>
          </mxGeometry>
        </mxCell>
        <mxCell id="PhnPV0rfydqtkL6QS3ha-87" value="Display &quot;Please verify your email first&quot;" style="verticalAlign=bottom;edgeStyle=elbowEdgeStyle;elbow=vertical;curved=0;rounded=0;dashed=1;dashPattern=2 3;endArrow=block;" edge="1" parent="1" source="PhnPV0rfydqtkL6QS3ha-2" target="PhnPV0rfydqtkL6QS3ha-1">
          <mxGeometry relative="1" as="geometry">
            <Array as="points">
              <mxPoint x="378" y="3180" />
            </Array>
          </mxGeometry>
        </mxCell>
        <mxCell id="PhnPV0rfydqtkL6QS3ha-88" value="Click &quot;Resend verification email&quot;" style="verticalAlign=bottom;edgeStyle=elbowEdgeStyle;elbow=vertical;curved=0;rounded=0;endArrow=block;" edge="1" parent="1" source="PhnPV0rfydqtkL6QS3ha-1" target="PhnPV0rfydqtkL6QS3ha-2">
          <mxGeometry relative="1" as="geometry">
            <Array as="points">
              <mxPoint x="375" y="3228" />
            </Array>
          </mxGeometry>
        </mxCell>
        <mxCell id="PhnPV0rfydqtkL6QS3ha-89" value="POST /auth/resend-verification" style="verticalAlign=bottom;edgeStyle=elbowEdgeStyle;elbow=vertical;curved=0;rounded=0;endArrow=block;" edge="1" parent="1" source="PhnPV0rfydqtkL6QS3ha-2" target="PhnPV0rfydqtkL6QS3ha-3">
          <mxGeometry relative="1" as="geometry">
            <Array as="points">
              <mxPoint x="803" y="3276" />
            </Array>
          </mxGeometry>
        </mxCell>
        <mxCell id="PhnPV0rfydqtkL6QS3ha-90" value="resendVerification(email)" style="verticalAlign=bottom;edgeStyle=elbowEdgeStyle;elbow=vertical;curved=0;rounded=0;endArrow=block;" edge="1" parent="1" source="PhnPV0rfydqtkL6QS3ha-3" target="PhnPV0rfydqtkL6QS3ha-4">
          <mxGeometry relative="1" as="geometry">
            <Array as="points">
              <mxPoint x="1179" y="3324" />
            </Array>
          </mxGeometry>
        </mxCell>
        <mxCell id="PhnPV0rfydqtkL6QS3ha-91" value="generateVerificationToken()" style="curved=1;endArrow=block;rounded=0;" edge="1" parent="1" source="PhnPV0rfydqtkL6QS3ha-4" target="PhnPV0rfydqtkL6QS3ha-4">
          <mxGeometry relative="1" as="geometry">
            <Array as="points">
              <mxPoint x="1440" y="3372" />
              <mxPoint x="1440" y="3402" />
            </Array>
          </mxGeometry>
        </mxCell>
        <mxCell id="PhnPV0rfydqtkL6QS3ha-92" value="sendVerificationEmail(email, token)" style="verticalAlign=bottom;edgeStyle=elbowEdgeStyle;elbow=vertical;curved=0;rounded=0;endArrow=block;" edge="1" parent="1" source="PhnPV0rfydqtkL6QS3ha-4" target="PhnPV0rfydqtkL6QS3ha-6">
          <mxGeometry relative="1" as="geometry">
            <Array as="points">
              <mxPoint x="1688" y="3450" />
            </Array>
          </mxGeometry>
        </mxCell>
        <mxCell id="PhnPV0rfydqtkL6QS3ha-93" value="email sent status" style="verticalAlign=bottom;edgeStyle=elbowEdgeStyle;elbow=vertical;curved=0;rounded=0;dashed=1;dashPattern=2 3;endArrow=block;" edge="1" parent="1" source="PhnPV0rfydqtkL6QS3ha-6" target="PhnPV0rfydqtkL6QS3ha-4">
          <mxGeometry relative="1" as="geometry">
            <Array as="points">
              <mxPoint x="1691" y="3498" />
            </Array>
          </mxGeometry>
        </mxCell>
        <mxCell id="PhnPV0rfydqtkL6QS3ha-94" value="verification email sent" style="verticalAlign=bottom;edgeStyle=elbowEdgeStyle;elbow=vertical;curved=0;rounded=0;dashed=1;dashPattern=2 3;endArrow=block;" edge="1" parent="1" source="PhnPV0rfydqtkL6QS3ha-4" target="PhnPV0rfydqtkL6QS3ha-3">
          <mxGeometry relative="1" as="geometry">
            <Array as="points">
              <mxPoint x="1182" y="3546" />
            </Array>
          </mxGeometry>
        </mxCell>
        <mxCell id="PhnPV0rfydqtkL6QS3ha-95" value="success response" style="verticalAlign=bottom;edgeStyle=elbowEdgeStyle;elbow=vertical;curved=0;rounded=0;dashed=1;dashPattern=2 3;endArrow=block;" edge="1" parent="1" source="PhnPV0rfydqtkL6QS3ha-3" target="PhnPV0rfydqtkL6QS3ha-2">
          <mxGeometry relative="1" as="geometry">
            <Array as="points">
              <mxPoint x="806" y="3594" />
            </Array>
          </mxGeometry>
        </mxCell>
        <mxCell id="PhnPV0rfydqtkL6QS3ha-96" value="Display &quot;Verification email sent&quot;" style="verticalAlign=bottom;edgeStyle=elbowEdgeStyle;elbow=vertical;curved=0;rounded=0;dashed=1;dashPattern=2 3;endArrow=block;" edge="1" parent="1" source="PhnPV0rfydqtkL6QS3ha-2" target="PhnPV0rfydqtkL6QS3ha-1">
          <mxGeometry relative="1" as="geometry">
            <Array as="points">
              <mxPoint x="378" y="3642" />
            </Array>
          </mxGeometry>
        </mxCell>
        <mxCell id="PhnPV0rfydqtkL6QS3ha-97" value="verifyPassword(password, hashedPassword)" style="curved=1;endArrow=block;rounded=0;" edge="1" parent="1" source="PhnPV0rfydqtkL6QS3ha-4" target="PhnPV0rfydqtkL6QS3ha-4">
          <mxGeometry relative="1" as="geometry">
            <Array as="points">
              <mxPoint x="1440" y="3735" />
              <mxPoint x="1440" y="3765" />
            </Array>
          </mxGeometry>
        </mxCell>
        <mxCell id="PhnPV0rfydqtkL6QS3ha-98" value="authentication failed" style="verticalAlign=bottom;edgeStyle=elbowEdgeStyle;elbow=vertical;curved=0;rounded=0;dashed=1;dashPattern=2 3;endArrow=block;" edge="1" parent="1" source="PhnPV0rfydqtkL6QS3ha-4" target="PhnPV0rfydqtkL6QS3ha-3">
          <mxGeometry relative="1" as="geometry">
            <Array as="points">
              <mxPoint x="1182" y="3858" />
            </Array>
          </mxGeometry>
        </mxCell>
        <mxCell id="PhnPV0rfydqtkL6QS3ha-99" value="error response" style="verticalAlign=bottom;edgeStyle=elbowEdgeStyle;elbow=vertical;curved=0;rounded=0;dashed=1;dashPattern=2 3;endArrow=block;" edge="1" parent="1" source="PhnPV0rfydqtkL6QS3ha-3" target="PhnPV0rfydqtkL6QS3ha-2">
          <mxGeometry relative="1" as="geometry">
            <Array as="points">
              <mxPoint x="806" y="3906" />
            </Array>
          </mxGeometry>
        </mxCell>
        <mxCell id="PhnPV0rfydqtkL6QS3ha-100" value="Display &quot;Invalid email or password&quot;" style="verticalAlign=bottom;edgeStyle=elbowEdgeStyle;elbow=vertical;curved=0;rounded=0;dashed=1;dashPattern=2 3;endArrow=block;" edge="1" parent="1" source="PhnPV0rfydqtkL6QS3ha-2" target="PhnPV0rfydqtkL6QS3ha-1">
          <mxGeometry relative="1" as="geometry">
            <Array as="points">
              <mxPoint x="378" y="3954" />
            </Array>
          </mxGeometry>
        </mxCell>
        <mxCell id="PhnPV0rfydqtkL6QS3ha-101" value="generateJWT(userId, role)" style="curved=1;endArrow=block;rounded=0;" edge="1" parent="1" source="PhnPV0rfydqtkL6QS3ha-4" target="PhnPV0rfydqtkL6QS3ha-4">
          <mxGeometry relative="1" as="geometry">
            <Array as="points">
              <mxPoint x="1440" y="4047" />
              <mxPoint x="1440" y="4077" />
            </Array>
          </mxGeometry>
        </mxCell>
        <mxCell id="PhnPV0rfydqtkL6QS3ha-102" value="JWT token" style="verticalAlign=bottom;edgeStyle=elbowEdgeStyle;elbow=vertical;curved=0;rounded=0;dashed=1;dashPattern=2 3;endArrow=block;" edge="1" parent="1" source="PhnPV0rfydqtkL6QS3ha-4" target="PhnPV0rfydqtkL6QS3ha-3">
          <mxGeometry relative="1" as="geometry">
            <Array as="points">
              <mxPoint x="1182" y="4125" />
            </Array>
          </mxGeometry>
        </mxCell>
        <mxCell id="PhnPV0rfydqtkL6QS3ha-103" value="auth success with token" style="verticalAlign=bottom;edgeStyle=elbowEdgeStyle;elbow=vertical;curved=0;rounded=0;dashed=1;dashPattern=2 3;endArrow=block;" edge="1" parent="1" source="PhnPV0rfydqtkL6QS3ha-3" target="PhnPV0rfydqtkL6QS3ha-2">
          <mxGeometry relative="1" as="geometry">
            <Array as="points">
              <mxPoint x="806" y="4173" />
            </Array>
          </mxGeometry>
        </mxCell>
        <mxCell id="PhnPV0rfydqtkL6QS3ha-104" value="Store token in localStorage/cookies" style="curved=1;endArrow=block;rounded=0;" edge="1" parent="1" source="PhnPV0rfydqtkL6QS3ha-2" target="PhnPV0rfydqtkL6QS3ha-2">
          <mxGeometry relative="1" as="geometry">
            <Array as="points">
              <mxPoint x="688" y="4221" />
              <mxPoint x="688" y="4251" />
            </Array>
          </mxGeometry>
        </mxCell>
        <mxCell id="PhnPV0rfydqtkL6QS3ha-105" value="Redirect to dashboard/home" style="verticalAlign=bottom;edgeStyle=elbowEdgeStyle;elbow=vertical;curved=0;rounded=0;dashed=1;dashPattern=2 3;endArrow=block;" edge="1" parent="1" source="PhnPV0rfydqtkL6QS3ha-2" target="PhnPV0rfydqtkL6QS3ha-1">
          <mxGeometry relative="1" as="geometry">
            <Array as="points">
              <mxPoint x="378" y="4299" />
            </Array>
          </mxGeometry>
        </mxCell>
        <mxCell id="PhnPV0rfydqtkL6QS3ha-106" value="recordLoginActivity(userId, timestamp, IP)" style="verticalAlign=bottom;edgeStyle=elbowEdgeStyle;elbow=vertical;curved=0;rounded=0;endArrow=block;" edge="1" parent="1" source="PhnPV0rfydqtkL6QS3ha-4" target="PhnPV0rfydqtkL6QS3ha-7">
          <mxGeometry relative="1" as="geometry">
            <Array as="points">
              <mxPoint x="1788" y="4347" />
            </Array>
          </mxGeometry>
        </mxCell>
        <mxCell id="PhnPV0rfydqtkL6QS3ha-107" value="Click &quot;Forgot Password&quot;" style="verticalAlign=bottom;edgeStyle=elbowEdgeStyle;elbow=vertical;curved=0;rounded=0;endArrow=block;" edge="1" parent="1" source="PhnPV0rfydqtkL6QS3ha-1" target="PhnPV0rfydqtkL6QS3ha-2">
          <mxGeometry relative="1" as="geometry">
            <Array as="points">
              <mxPoint x="375" y="4480" />
            </Array>
          </mxGeometry>
        </mxCell>
        <mxCell id="PhnPV0rfydqtkL6QS3ha-108" value="Display password reset form" style="verticalAlign=bottom;edgeStyle=elbowEdgeStyle;elbow=vertical;curved=0;rounded=0;dashed=1;dashPattern=2 3;endArrow=block;" edge="1" parent="1" source="PhnPV0rfydqtkL6QS3ha-2" target="PhnPV0rfydqtkL6QS3ha-1">
          <mxGeometry relative="1" as="geometry">
            <Array as="points">
              <mxPoint x="378" y="4528" />
            </Array>
          </mxGeometry>
        </mxCell>
        <mxCell id="PhnPV0rfydqtkL6QS3ha-109" value="Enter email" style="verticalAlign=bottom;edgeStyle=elbowEdgeStyle;elbow=vertical;curved=0;rounded=0;endArrow=block;" edge="1" parent="1" source="PhnPV0rfydqtkL6QS3ha-1" target="PhnPV0rfydqtkL6QS3ha-2">
          <mxGeometry relative="1" as="geometry">
            <Array as="points">
              <mxPoint x="375" y="4576" />
            </Array>
          </mxGeometry>
        </mxCell>
        <mxCell id="PhnPV0rfydqtkL6QS3ha-110" value="POST /auth/forgot-password" style="verticalAlign=bottom;edgeStyle=elbowEdgeStyle;elbow=vertical;curved=0;rounded=0;endArrow=block;" edge="1" parent="1" source="PhnPV0rfydqtkL6QS3ha-2" target="PhnPV0rfydqtkL6QS3ha-3">
          <mxGeometry relative="1" as="geometry">
            <Array as="points">
              <mxPoint x="803" y="4624" />
            </Array>
          </mxGeometry>
        </mxCell>
        <mxCell id="PhnPV0rfydqtkL6QS3ha-111" value="forgotPassword(email)" style="verticalAlign=bottom;edgeStyle=elbowEdgeStyle;elbow=vertical;curved=0;rounded=0;endArrow=block;" edge="1" parent="1" source="PhnPV0rfydqtkL6QS3ha-3" target="PhnPV0rfydqtkL6QS3ha-4">
          <mxGeometry relative="1" as="geometry">
            <Array as="points">
              <mxPoint x="1179" y="4672" />
            </Array>
          </mxGeometry>
        </mxCell>
        <mxCell id="PhnPV0rfydqtkL6QS3ha-112" value="getUser(email)" style="verticalAlign=bottom;edgeStyle=elbowEdgeStyle;elbow=vertical;curved=0;rounded=0;endArrow=block;" edge="1" parent="1" source="PhnPV0rfydqtkL6QS3ha-4" target="PhnPV0rfydqtkL6QS3ha-5">
          <mxGeometry relative="1" as="geometry">
            <Array as="points">
              <mxPoint x="1588" y="4720" />
            </Array>
          </mxGeometry>
        </mxCell>
        <mxCell id="PhnPV0rfydqtkL6QS3ha-113" value="query user" style="verticalAlign=bottom;edgeStyle=elbowEdgeStyle;elbow=vertical;curved=0;rounded=0;endArrow=block;" edge="1" parent="1" source="PhnPV0rfydqtkL6QS3ha-5" target="PhnPV0rfydqtkL6QS3ha-7">
          <mxGeometry relative="1" as="geometry">
            <Array as="points">
              <mxPoint x="1979" y="4768" />
            </Array>
          </mxGeometry>
        </mxCell>
        <mxCell id="PhnPV0rfydqtkL6QS3ha-114" value="no user found" style="verticalAlign=bottom;edgeStyle=elbowEdgeStyle;elbow=vertical;curved=0;rounded=0;dashed=1;dashPattern=2 3;endArrow=block;" edge="1" parent="1" source="PhnPV0rfydqtkL6QS3ha-7" target="PhnPV0rfydqtkL6QS3ha-5">
          <mxGeometry relative="1" as="geometry">
            <Array as="points">
              <mxPoint x="1982" y="4861" />
            </Array>
          </mxGeometry>
        </mxCell>
        <mxCell id="PhnPV0rfydqtkL6QS3ha-115" value="user not found" style="verticalAlign=bottom;edgeStyle=elbowEdgeStyle;elbow=vertical;curved=0;rounded=0;dashed=1;dashPattern=2 3;endArrow=block;" edge="1" parent="1" source="PhnPV0rfydqtkL6QS3ha-5" target="PhnPV0rfydqtkL6QS3ha-4">
          <mxGeometry relative="1" as="geometry">
            <Array as="points">
              <mxPoint x="1591" y="4909" />
            </Array>
          </mxGeometry>
        </mxCell>
        <mxCell id="PhnPV0rfydqtkL6QS3ha-116" value="generic success (even though user not found)" style="verticalAlign=bottom;edgeStyle=elbowEdgeStyle;elbow=vertical;curved=0;rounded=0;dashed=1;dashPattern=2 3;endArrow=block;" edge="1" parent="1" source="PhnPV0rfydqtkL6QS3ha-4" target="PhnPV0rfydqtkL6QS3ha-3">
          <mxGeometry relative="1" as="geometry">
            <Array as="points">
              <mxPoint x="1182" y="4957" />
            </Array>
          </mxGeometry>
        </mxCell>
        <mxCell id="PhnPV0rfydqtkL6QS3ha-117" value="success response" style="verticalAlign=bottom;edgeStyle=elbowEdgeStyle;elbow=vertical;curved=0;rounded=0;dashed=1;dashPattern=2 3;endArrow=block;" edge="1" parent="1" source="PhnPV0rfydqtkL6QS3ha-3" target="PhnPV0rfydqtkL6QS3ha-2">
          <mxGeometry relative="1" as="geometry">
            <Array as="points">
              <mxPoint x="806" y="5005" />
            </Array>
          </mxGeometry>
        </mxCell>
        <mxCell id="PhnPV0rfydqtkL6QS3ha-118" value="Display &quot;If email exists, reset instructions sent&quot;" style="verticalAlign=bottom;edgeStyle=elbowEdgeStyle;elbow=vertical;curved=0;rounded=0;dashed=1;dashPattern=2 3;endArrow=block;" edge="1" parent="1" source="PhnPV0rfydqtkL6QS3ha-2" target="PhnPV0rfydqtkL6QS3ha-1">
          <mxGeometry relative="1" as="geometry">
            <Array as="points">
              <mxPoint x="378" y="5053" />
            </Array>
          </mxGeometry>
        </mxCell>
        <mxCell id="PhnPV0rfydqtkL6QS3ha-119" value="user data" style="verticalAlign=bottom;edgeStyle=elbowEdgeStyle;elbow=vertical;curved=0;rounded=0;dashed=1;dashPattern=2 3;endArrow=block;" edge="1" parent="1" source="PhnPV0rfydqtkL6QS3ha-7" target="PhnPV0rfydqtkL6QS3ha-5">
          <mxGeometry relative="1" as="geometry">
            <Array as="points">
              <mxPoint x="1982" y="5146" />
            </Array>
          </mxGeometry>
        </mxCell>
        <mxCell id="PhnPV0rfydqtkL6QS3ha-120" value="user found" style="verticalAlign=bottom;edgeStyle=elbowEdgeStyle;elbow=vertical;curved=0;rounded=0;dashed=1;dashPattern=2 3;endArrow=block;" edge="1" parent="1" source="PhnPV0rfydqtkL6QS3ha-5" target="PhnPV0rfydqtkL6QS3ha-4">
          <mxGeometry relative="1" as="geometry">
            <Array as="points">
              <mxPoint x="1591" y="5194" />
            </Array>
          </mxGeometry>
        </mxCell>
        <mxCell id="PhnPV0rfydqtkL6QS3ha-121" value="generateResetToken()" style="curved=1;endArrow=block;rounded=0;" edge="1" parent="1" source="PhnPV0rfydqtkL6QS3ha-4" target="PhnPV0rfydqtkL6QS3ha-4">
          <mxGeometry relative="1" as="geometry">
            <Array as="points">
              <mxPoint x="1440" y="5242" />
              <mxPoint x="1440" y="5272" />
            </Array>
          </mxGeometry>
        </mxCell>
        <mxCell id="PhnPV0rfydqtkL6QS3ha-122" value="storeResetToken(userId, token, expiry)" style="verticalAlign=bottom;edgeStyle=elbowEdgeStyle;elbow=vertical;curved=0;rounded=0;endArrow=block;" edge="1" parent="1" source="PhnPV0rfydqtkL6QS3ha-4" target="PhnPV0rfydqtkL6QS3ha-7">
          <mxGeometry relative="1" as="geometry">
            <Array as="points">
              <mxPoint x="1788" y="5320" />
            </Array>
          </mxGeometry>
        </mxCell>
        <mxCell id="PhnPV0rfydqtkL6QS3ha-123" value="sendPasswordResetEmail(email, token)" style="verticalAlign=bottom;edgeStyle=elbowEdgeStyle;elbow=vertical;curved=0;rounded=0;endArrow=block;" edge="1" parent="1" source="PhnPV0rfydqtkL6QS3ha-4" target="PhnPV0rfydqtkL6QS3ha-6">
          <mxGeometry relative="1" as="geometry">
            <Array as="points">
              <mxPoint x="1688" y="5368" />
            </Array>
          </mxGeometry>
        </mxCell>
        <mxCell id="PhnPV0rfydqtkL6QS3ha-124" value="email sent status" style="verticalAlign=bottom;edgeStyle=elbowEdgeStyle;elbow=vertical;curved=0;rounded=0;dashed=1;dashPattern=2 3;endArrow=block;" edge="1" parent="1" source="PhnPV0rfydqtkL6QS3ha-6" target="PhnPV0rfydqtkL6QS3ha-4">
          <mxGeometry relative="1" as="geometry">
            <Array as="points">
              <mxPoint x="1691" y="5416" />
            </Array>
          </mxGeometry>
        </mxCell>
        <mxCell id="PhnPV0rfydqtkL6QS3ha-125" value="password reset email sent" style="verticalAlign=bottom;edgeStyle=elbowEdgeStyle;elbow=vertical;curved=0;rounded=0;dashed=1;dashPattern=2 3;endArrow=block;" edge="1" parent="1" source="PhnPV0rfydqtkL6QS3ha-4" target="PhnPV0rfydqtkL6QS3ha-3">
          <mxGeometry relative="1" as="geometry">
            <Array as="points">
              <mxPoint x="1182" y="5464" />
            </Array>
          </mxGeometry>
        </mxCell>
        <mxCell id="PhnPV0rfydqtkL6QS3ha-126" value="success response" style="verticalAlign=bottom;edgeStyle=elbowEdgeStyle;elbow=vertical;curved=0;rounded=0;dashed=1;dashPattern=2 3;endArrow=block;" edge="1" parent="1" source="PhnPV0rfydqtkL6QS3ha-3" target="PhnPV0rfydqtkL6QS3ha-2">
          <mxGeometry relative="1" as="geometry">
            <Array as="points">
              <mxPoint x="806" y="5512" />
            </Array>
          </mxGeometry>
        </mxCell>
        <mxCell id="PhnPV0rfydqtkL6QS3ha-127" value="Display &quot;Reset instructions sent to your email&quot;" style="verticalAlign=bottom;edgeStyle=elbowEdgeStyle;elbow=vertical;curved=0;rounded=0;dashed=1;dashPattern=2 3;endArrow=block;" edge="1" parent="1" source="PhnPV0rfydqtkL6QS3ha-2" target="PhnPV0rfydqtkL6QS3ha-1">
          <mxGeometry relative="1" as="geometry">
            <Array as="points">
              <mxPoint x="378" y="5560" />
            </Array>
          </mxGeometry>
        </mxCell>
        <mxCell id="PhnPV0rfydqtkL6QS3ha-128" value="Click reset link &amp; enter new password" style="verticalAlign=bottom;edgeStyle=elbowEdgeStyle;elbow=vertical;curved=0;rounded=0;endArrow=block;" edge="1" parent="1" source="PhnPV0rfydqtkL6QS3ha-1" target="PhnPV0rfydqtkL6QS3ha-2">
          <mxGeometry relative="1" as="geometry">
            <Array as="points">
              <mxPoint x="375" y="5655" />
            </Array>
          </mxGeometry>
        </mxCell>
        <mxCell id="PhnPV0rfydqtkL6QS3ha-129" value="POST /auth/reset-password" style="verticalAlign=bottom;edgeStyle=elbowEdgeStyle;elbow=vertical;curved=0;rounded=0;endArrow=block;" edge="1" parent="1" source="PhnPV0rfydqtkL6QS3ha-2" target="PhnPV0rfydqtkL6QS3ha-3">
          <mxGeometry relative="1" as="geometry">
            <Array as="points">
              <mxPoint x="803" y="5703" />
            </Array>
          </mxGeometry>
        </mxCell>
        <mxCell id="PhnPV0rfydqtkL6QS3ha-130" value="resetPassword(token, newPassword)" style="verticalAlign=bottom;edgeStyle=elbowEdgeStyle;elbow=vertical;curved=0;rounded=0;endArrow=block;" edge="1" parent="1" source="PhnPV0rfydqtkL6QS3ha-3" target="PhnPV0rfydqtkL6QS3ha-4">
          <mxGeometry relative="1" as="geometry">
            <Array as="points">
              <mxPoint x="1179" y="5798" />
            </Array>
          </mxGeometry>
        </mxCell>
        <mxCell id="PhnPV0rfydqtkL6QS3ha-131" value="validateResetToken(token)" style="verticalAlign=bottom;edgeStyle=elbowEdgeStyle;elbow=vertical;curved=0;rounded=0;endArrow=block;" edge="1" parent="1" source="PhnPV0rfydqtkL6QS3ha-4" target="PhnPV0rfydqtkL6QS3ha-7">
          <mxGeometry relative="1" as="geometry">
            <Array as="points">
              <mxPoint x="1788" y="5846" />
            </Array>
          </mxGeometry>
        </mxCell>
        <mxCell id="PhnPV0rfydqtkL6QS3ha-132" value="invalid/expired token" style="verticalAlign=bottom;edgeStyle=elbowEdgeStyle;elbow=vertical;curved=0;rounded=0;dashed=1;dashPattern=2 3;endArrow=block;" edge="1" parent="1" source="PhnPV0rfydqtkL6QS3ha-7" target="PhnPV0rfydqtkL6QS3ha-4">
          <mxGeometry relative="1" as="geometry">
            <Array as="points">
              <mxPoint x="1791" y="5939" />
            </Array>
          </mxGeometry>
        </mxCell>
        <mxCell id="PhnPV0rfydqtkL6QS3ha-133" value="invalid token error" style="verticalAlign=bottom;edgeStyle=elbowEdgeStyle;elbow=vertical;curved=0;rounded=0;dashed=1;dashPattern=2 3;endArrow=block;" edge="1" parent="1" source="PhnPV0rfydqtkL6QS3ha-4" target="PhnPV0rfydqtkL6QS3ha-3">
          <mxGeometry relative="1" as="geometry">
            <Array as="points">
              <mxPoint x="1182" y="5987" />
            </Array>
          </mxGeometry>
        </mxCell>
        <mxCell id="PhnPV0rfydqtkL6QS3ha-134" value="error response" style="verticalAlign=bottom;edgeStyle=elbowEdgeStyle;elbow=vertical;curved=0;rounded=0;dashed=1;dashPattern=2 3;endArrow=block;" edge="1" parent="1" source="PhnPV0rfydqtkL6QS3ha-3" target="PhnPV0rfydqtkL6QS3ha-2">
          <mxGeometry relative="1" as="geometry">
            <Array as="points">
              <mxPoint x="806" y="6035" />
            </Array>
          </mxGeometry>
        </mxCell>
        <mxCell id="PhnPV0rfydqtkL6QS3ha-135" value="Display &quot;Invalid or expired link. Try again.&quot;" style="verticalAlign=bottom;edgeStyle=elbowEdgeStyle;elbow=vertical;curved=0;rounded=0;dashed=1;dashPattern=2 3;endArrow=block;" edge="1" parent="1" source="PhnPV0rfydqtkL6QS3ha-2" target="PhnPV0rfydqtkL6QS3ha-1">
          <mxGeometry relative="1" as="geometry">
            <Array as="points">
              <mxPoint x="378" y="6083" />
            </Array>
          </mxGeometry>
        </mxCell>
        <mxCell id="PhnPV0rfydqtkL6QS3ha-136" value="token valid, userId" style="verticalAlign=bottom;edgeStyle=elbowEdgeStyle;elbow=vertical;curved=0;rounded=0;dashed=1;dashPattern=2 3;endArrow=block;" edge="1" parent="1" source="PhnPV0rfydqtkL6QS3ha-7" target="PhnPV0rfydqtkL6QS3ha-4">
          <mxGeometry relative="1" as="geometry">
            <Array as="points">
              <mxPoint x="1791" y="6176" />
            </Array>
          </mxGeometry>
        </mxCell>
        <mxCell id="PhnPV0rfydqtkL6QS3ha-137" value="updatePassword(userId, newPassword)" style="verticalAlign=bottom;edgeStyle=elbowEdgeStyle;elbow=vertical;curved=0;rounded=0;endArrow=block;" edge="1" parent="1" source="PhnPV0rfydqtkL6QS3ha-4" target="PhnPV0rfydqtkL6QS3ha-5">
          <mxGeometry relative="1" as="geometry">
            <Array as="points">
              <mxPoint x="1588" y="6224" />
            </Array>
          </mxGeometry>
        </mxCell>
        <mxCell id="PhnPV0rfydqtkL6QS3ha-138" value="hashPassword(newPassword)" style="curved=1;endArrow=block;rounded=0;" edge="1" parent="1" source="PhnPV0rfydqtkL6QS3ha-5" target="PhnPV0rfydqtkL6QS3ha-5">
          <mxGeometry relative="1" as="geometry">
            <Array as="points">
              <mxPoint x="1821" y="6272" />
              <mxPoint x="1821" y="6302" />
            </Array>
          </mxGeometry>
        </mxCell>
        <mxCell id="PhnPV0rfydqtkL6QS3ha-139" value="update user password" style="verticalAlign=bottom;edgeStyle=elbowEdgeStyle;elbow=vertical;curved=0;rounded=0;endArrow=block;" edge="1" parent="1" source="PhnPV0rfydqtkL6QS3ha-5" target="PhnPV0rfydqtkL6QS3ha-7">
          <mxGeometry relative="1" as="geometry">
            <Array as="points">
              <mxPoint x="1979" y="6350" />
            </Array>
          </mxGeometry>
        </mxCell>
        <mxCell id="PhnPV0rfydqtkL6QS3ha-140" value="update successful" style="verticalAlign=bottom;edgeStyle=elbowEdgeStyle;elbow=vertical;curved=0;rounded=0;dashed=1;dashPattern=2 3;endArrow=block;" edge="1" parent="1" source="PhnPV0rfydqtkL6QS3ha-7" target="PhnPV0rfydqtkL6QS3ha-5">
          <mxGeometry relative="1" as="geometry">
            <Array as="points">
              <mxPoint x="1982" y="6398" />
            </Array>
          </mxGeometry>
        </mxCell>
        <mxCell id="PhnPV0rfydqtkL6QS3ha-141" value="password updated" style="verticalAlign=bottom;edgeStyle=elbowEdgeStyle;elbow=vertical;curved=0;rounded=0;dashed=1;dashPattern=2 3;endArrow=block;" edge="1" parent="1" source="PhnPV0rfydqtkL6QS3ha-5" target="PhnPV0rfydqtkL6QS3ha-4">
          <mxGeometry relative="1" as="geometry">
            <Array as="points">
              <mxPoint x="1591" y="6446" />
            </Array>
          </mxGeometry>
        </mxCell>
        <mxCell id="PhnPV0rfydqtkL6QS3ha-142" value="invalidateResetToken(token)" style="verticalAlign=bottom;edgeStyle=elbowEdgeStyle;elbow=vertical;curved=0;rounded=0;endArrow=block;" edge="1" parent="1" source="PhnPV0rfydqtkL6QS3ha-4" target="PhnPV0rfydqtkL6QS3ha-7">
          <mxGeometry relative="1" as="geometry">
            <Array as="points">
              <mxPoint x="1788" y="6494" />
            </Array>
          </mxGeometry>
        </mxCell>
        <mxCell id="PhnPV0rfydqtkL6QS3ha-143" value="password reset successful" style="verticalAlign=bottom;edgeStyle=elbowEdgeStyle;elbow=vertical;curved=0;rounded=0;dashed=1;dashPattern=2 3;endArrow=block;" edge="1" parent="1" source="PhnPV0rfydqtkL6QS3ha-4" target="PhnPV0rfydqtkL6QS3ha-3">
          <mxGeometry relative="1" as="geometry">
            <Array as="points">
              <mxPoint x="1182" y="6542" />
            </Array>
          </mxGeometry>
        </mxCell>
        <mxCell id="PhnPV0rfydqtkL6QS3ha-144" value="success response" style="verticalAlign=bottom;edgeStyle=elbowEdgeStyle;elbow=vertical;curved=0;rounded=0;dashed=1;dashPattern=2 3;endArrow=block;" edge="1" parent="1" source="PhnPV0rfydqtkL6QS3ha-3" target="PhnPV0rfydqtkL6QS3ha-2">
          <mxGeometry relative="1" as="geometry">
            <Array as="points">
              <mxPoint x="806" y="6590" />
            </Array>
          </mxGeometry>
        </mxCell>
        <mxCell id="PhnPV0rfydqtkL6QS3ha-145" value="Display &quot;Password reset successful. Please login.&quot;" style="verticalAlign=bottom;edgeStyle=elbowEdgeStyle;elbow=vertical;curved=0;rounded=0;dashed=1;dashPattern=2 3;endArrow=block;" edge="1" parent="1" source="PhnPV0rfydqtkL6QS3ha-2" target="PhnPV0rfydqtkL6QS3ha-1">
          <mxGeometry relative="1" as="geometry">
            <Array as="points">
              <mxPoint x="378" y="6638" />
            </Array>
          </mxGeometry>
        </mxCell>
        <mxCell id="PhnPV0rfydqtkL6QS3ha-146" value="Click &quot;Logout&quot;" style="verticalAlign=bottom;edgeStyle=elbowEdgeStyle;elbow=vertical;curved=0;rounded=0;endArrow=block;" edge="1" parent="1" source="PhnPV0rfydqtkL6QS3ha-1" target="PhnPV0rfydqtkL6QS3ha-2">
          <mxGeometry relative="1" as="geometry">
            <Array as="points">
              <mxPoint x="375" y="6761" />
            </Array>
          </mxGeometry>
        </mxCell>
        <mxCell id="PhnPV0rfydqtkL6QS3ha-147" value="POST /auth/logout" style="verticalAlign=bottom;edgeStyle=elbowEdgeStyle;elbow=vertical;curved=0;rounded=0;endArrow=block;" edge="1" parent="1" source="PhnPV0rfydqtkL6QS3ha-2" target="PhnPV0rfydqtkL6QS3ha-3">
          <mxGeometry relative="1" as="geometry">
            <Array as="points">
              <mxPoint x="803" y="6809" />
            </Array>
          </mxGeometry>
        </mxCell>
        <mxCell id="PhnPV0rfydqtkL6QS3ha-148" value="logout(token)" style="verticalAlign=bottom;edgeStyle=elbowEdgeStyle;elbow=vertical;curved=0;rounded=0;endArrow=block;" edge="1" parent="1" source="PhnPV0rfydqtkL6QS3ha-3" target="PhnPV0rfydqtkL6QS3ha-4">
          <mxGeometry relative="1" as="geometry">
            <Array as="points">
              <mxPoint x="1179" y="6904" />
            </Array>
          </mxGeometry>
        </mxCell>
        <mxCell id="PhnPV0rfydqtkL6QS3ha-149" value="blacklistToken(token)" style="verticalAlign=bottom;edgeStyle=elbowEdgeStyle;elbow=vertical;curved=0;rounded=0;endArrow=block;" edge="1" parent="1" source="PhnPV0rfydqtkL6QS3ha-4" target="PhnPV0rfydqtkL6QS3ha-7">
          <mxGeometry relative="1" as="geometry">
            <Array as="points">
              <mxPoint x="1788" y="6952" />
            </Array>
          </mxGeometry>
        </mxCell>
        <mxCell id="PhnPV0rfydqtkL6QS3ha-150" value="token blacklisted" style="verticalAlign=bottom;edgeStyle=elbowEdgeStyle;elbow=vertical;curved=0;rounded=0;dashed=1;dashPattern=2 3;endArrow=block;" edge="1" parent="1" source="PhnPV0rfydqtkL6QS3ha-7" target="PhnPV0rfydqtkL6QS3ha-4">
          <mxGeometry relative="1" as="geometry">
            <Array as="points">
              <mxPoint x="1791" y="7000" />
            </Array>
          </mxGeometry>
        </mxCell>
        <mxCell id="PhnPV0rfydqtkL6QS3ha-151" value="logout successful" style="verticalAlign=bottom;edgeStyle=elbowEdgeStyle;elbow=vertical;curved=0;rounded=0;dashed=1;dashPattern=2 3;endArrow=block;" edge="1" parent="1" source="PhnPV0rfydqtkL6QS3ha-4" target="PhnPV0rfydqtkL6QS3ha-3">
          <mxGeometry relative="1" as="geometry">
            <Array as="points">
              <mxPoint x="1182" y="7048" />
            </Array>
          </mxGeometry>
        </mxCell>
        <mxCell id="PhnPV0rfydqtkL6QS3ha-152" value="success response" style="verticalAlign=bottom;edgeStyle=elbowEdgeStyle;elbow=vertical;curved=0;rounded=0;dashed=1;dashPattern=2 3;endArrow=block;" edge="1" parent="1" source="PhnPV0rfydqtkL6QS3ha-3" target="PhnPV0rfydqtkL6QS3ha-2">
          <mxGeometry relative="1" as="geometry">
            <Array as="points">
              <mxPoint x="806" y="7096" />
            </Array>
          </mxGeometry>
        </mxCell>
        <mxCell id="PhnPV0rfydqtkL6QS3ha-153" value="Clear localStorage/cookies" style="curved=1;endArrow=block;rounded=0;" edge="1" parent="1" source="PhnPV0rfydqtkL6QS3ha-2" target="PhnPV0rfydqtkL6QS3ha-2">
          <mxGeometry relative="1" as="geometry">
            <Array as="points">
              <mxPoint x="688" y="7144" />
              <mxPoint x="688" y="7174" />
            </Array>
          </mxGeometry>
        </mxCell>
        <mxCell id="PhnPV0rfydqtkL6QS3ha-154" value="Redirect to login page" style="verticalAlign=bottom;edgeStyle=elbowEdgeStyle;elbow=vertical;curved=0;rounded=0;dashed=1;dashPattern=2 3;endArrow=block;" edge="1" parent="1" source="PhnPV0rfydqtkL6QS3ha-2" target="PhnPV0rfydqtkL6QS3ha-1">
          <mxGeometry relative="1" as="geometry">
            <Array as="points">
              <mxPoint x="378" y="7222" />
            </Array>
          </mxGeometry>
        </mxCell>
        <mxCell id="PhnPV0rfydqtkL6QS3ha-155" value="email, password, name, phone, etc." style="fillColor=#ffff88;strokeColor=#9E916F;" vertex="1" parent="1">
          <mxGeometry x="120" y="284" width="306" height="47" as="geometry" />
        </mxCell>
        <mxCell id="PhnPV0rfydqtkL6QS3ha-156" value="User receives verification email" style="fillColor=#ffff88;strokeColor=#9E916F;" vertex="1" parent="1">
          <mxGeometry x="70" y="1753" width="1925" height="47" as="geometry" />
        </mxCell>
        <mxCell id="PhnPV0rfydqtkL6QS3ha-157" value="User receives reset email" style="fillColor=#ffff88;strokeColor=#9E916F;" vertex="1" parent="1">
          <mxGeometry x="70" y="5580" width="1925" height="47" as="geometry" />
        </mxCell>
        <mxCell id="PhnPV0rfydqtkL6QS3ha-158" value="{token, newPassword}" style="fillColor=#ffff88;strokeColor=#9E916F;" vertex="1" parent="1">
          <mxGeometry x="662" y="5723" width="203" height="47" as="geometry" />
        </mxCell>
        <mxCell id="PhnPV0rfydqtkL6QS3ha-159" value="Authorization: Bearer {token}" style="fillColor=#ffff88;strokeColor=#9E916F;" vertex="1" parent="1">
          <mxGeometry x="662" y="6829" width="261" height="47" as="geometry" />
        </mxCell>
      </root>
    </mxGraphModel>
  </diagram>
</mxfile>
